<svg xmlns="http://www.w3.org/2000/svg" xmlns:xlink="http://www.w3.org/1999/xlink" viewBox="0,0,256,256" width="32px" height="32px" fill-rule="nonzero"><g fill="#ffffff" fill-rule="nonzero" stroke="none" stroke-width="1" stroke-linecap="butt" stroke-linejoin="miter" stroke-miterlimit="10" stroke-dasharray="" stroke-dashoffset="0" font-family="none" font-weight="none" font-size="none" text-anchor="none" style="mix-blend-mode: normal"><g transform="scale(8,8)"><path d="M16,2.84375l-0.5625,0.375l-12,8.03125l-0.4375,0.28125v8.9375l0.4375,0.28125l12,8.03125l0.5625,0.375l0.5625,-0.375l12,-8.03125l0.4375,-0.28125v-8.9375l-0.4375,-0.28125l-12,-8.03125zM15,5.90625v5.4375l-5.15625,3.46875l-4.03125,-2.71875zM17,5.90625l9.1875,6.1875l-4.03125,2.71875l-5.15625,-3.46875zM16,13.09375l4.34375,2.90625l-4.34375,2.90625l-4.34375,-2.90625zM5,13.9375l3.0625,2.0625l-3.0625,2.0625zM27,13.9375v4.125l-3.0625,-2.0625zM9.875,17.1875l5.125,3.46875v5.4375l-9.1875,-6.1875zM22.125,17.1875l4.0625,2.71875l-9.1875,6.1875v-5.4375z"></path></g></g></svg>