<svg width="44" height="30" viewBox="0 0 44 30" fill="none" xmlns="http://www.w3.org/2000/svg">
<path d="M43.0717 4.68367C42.8214 3.77761 42.3311 2.9515 41.6499 2.28801C40.9688 1.62453 40.1207 1.14694 39.1905 0.903062C35.765 2.73695e-07 22 0 22 0C22 0 8.23503 2.73695e-07 4.8095 0.903062C3.87932 1.14694 3.03122 1.62453 2.35008 2.28801C1.66894 2.9515 1.17865 3.77761 0.928275 4.68367C0.288653 8.08663 -0.0217387 11.5405 0.00118234 15C-0.0217387 18.4595 0.288653 21.9134 0.928275 25.3163C1.17865 26.2224 1.66894 27.0485 2.35008 27.712C3.03122 28.3755 3.87932 28.8531 4.8095 29.0969C8.23503 30 22 30 22 30C22 30 35.765 30 39.1905 29.0969C40.1207 28.8531 40.9688 28.3755 41.6499 27.712C42.3311 27.0485 42.8214 26.2224 43.0717 25.3163C43.7113 21.9134 44.0217 18.4595 43.9988 15C44.0217 11.5405 43.7113 8.08663 43.0717 4.68367ZM17.6002 21.4286V8.57143L29.0239 15L17.6002 21.4286Z" fill="white"/>
</svg>
